<svg id="レイヤー_1" data-name="レイヤー 1" xmlns="http://www.w3.org/2000/svg" viewBox="0 0 1825.6 255.34"><defs><style>.cls-1{fill:#005bac;}</style></defs><title>logo_full_official</title><g id="logo"><path class="cls-1" d="M270.07,587.83l-27.26,6.84a88,88,0,0,1-103.36,31.09l14.67-15.12a69,69,0,0,0,83.4-47.93l37.35,12.19a108.71,108.71,0,0,1-4.8,12.93m28.45-35.64c.18-2.8.29-5.62.29-8.46a128.5,128.5,0,0,0-2.48-25.14l-18,10a109.6,109.6,0,0,1,1.06,15.15c0,2.28-.08,4.55-.22,6.8l-39.11-3.36c.06-1.14.09-2.29.09-3.44a68.74,68.74,0,0,0-13.95-41.61l-1.78,1.35a66.73,66.73,0,0,1,10,19l-2,1.06a64.65,64.65,0,0,1,3.23,20.17c0,1,0,2-.08,3L203.42,544a32.29,32.29,0,0,1-.89,7.27l30.74,10a64.53,64.53,0,0,1-75.52,45.58l19.35-20-45.7-5.46-3.48-43.22L89.66,576.82a88,88,0,0,1,28.51-103.28l2.51-9.88a94.24,94.24,0,0,1,50.46-14.57c2.21,0,4.41.08,6.58.23h.05l6.71,11.26a83.78,83.78,0,0,1,28.63,10.15l3.77-3.55a88.43,88.43,0,0,0-30-11.24l-6.8-11.42c-3-.26-5.94-.41-9-.41a99.05,99.05,0,0,0-48.72,12.74l2.86-11.26a107.86,107.86,0,0,1,45.86-10.17c3.32,0,6.61.16,9.86.45l10-18.28A127.74,127.74,0,0,0,43.47,543.73a127.07,127.07,0,0,0,18.39,66L48.6,667.26l58.66-13a127.75,127.75,0,0,0,186-73.38l9,2.93A137.25,137.25,0,0,0,307.93,553l-9.41-.8Z" transform="translate(-43.47 -416.06)"/><path class="cls-1" d="M912.31,566.33H789.11V499.76h79.15l44,35.1v31.47ZM736.46,619H664.2l-32.07-31v-8.73H736.46ZM776.2,486.85v79.48H749.37V539.5H506V512.18H493V619H349V552.42H466.71V539.5H349V512.18H336.06V631.9H506v-41l40-38.49H736.46v13.91H619.22V631.9H749.37V579.24H776.2V631.9h12.91V579.24H925.23V486.85Z" transform="translate(-43.47 -416.06)"/><rect class="cls-1" x="929.33" y="13.66" width="43.03" height="234.47"/><path class="cls-1" d="M1049.28,446v-9h37.1v-7.24h18.1V437h37.1v9h-37.1v5.43H1138v38h-22.47l26.09,19.9v18.1l-37.1-28.2v28.2h-18.1v-28.2l-37.1,28.2v-18.1l26.09-19.9H1052.9v-38h33.48V446ZM1071,480.39h15.38V475H1071Zm48.86,0V475h-15.38v5.43ZM1071,460.48v5.43h15.38v-5.43Zm48.86,0h-15.38v5.43h15.38Z" transform="translate(-43.47 -416.06)"/><path class="cls-1" d="M1153.64,447.81v-9h35.29v-9H1207v9h35.28v9Zm5.43,41.63v-38h77.81v38H1207v21.71q0,16.29-14.48,16.29h-11.77v-9.05q8.15,0,8.15-7.24V489.44Zm18.1-9.05h41.62V460.48h-41.62Zm-25.34,47.05,12.67-34.38h18.09l-12.66,34.38Zm92.29,0H1226l-12.67-34.38h18.1l12.66,34.38Z" transform="translate(-43.47 -416.06)"/><path class="cls-1" d="M1258,440.58v-9.05h85v9.05h-33.48v77.81h37.1v9.05h-92.29v-9.05h37.1V440.58Z" transform="translate(-43.47 -416.06)"/><path class="cls-1" d="M1356.93,527.44V513L1388,496.68h-31.06v-9.05H1394v-2.72h-31.67v-9.05H1394v-2.71h-35.29v-9h14.48l-3.62-10.86h-10.86v-9H1366l-3.62-14.48h17.19l3.62,14.48H1385V429.72h17.19V444.2H1404V429.72h17.19V444.2H1423l3.62-14.48h17.19l-3.62,14.48h7.24v9h-10.86l-3.61,10.86h14.47v9h-35.29v2.71h31.67v9.05h-31.67v2.72h37.1v9.05h-31.06L1449.22,513v14.48L1412.12,508v19.45H1394V508l-37.1,19.45Zm57-63.34,3.62-10.86h-29l3.62,10.86Z" transform="translate(-43.47 -416.06)"/><path class="cls-1" d="M1459.48,458.67v-9.05h34.23l9.2-19.9h19.9l-9.19,19.9h38.15v9.05h-36.19l38,68.77h-20.81l-30-54.29-25.19,54.29h-19.9l31.82-68.77Z" transform="translate(-43.47 -416.06)"/><path class="cls-1" d="M1563.83,469.53V446h88.68v23.53h-18.1v-2.71l-12.67,19h32.58v9.05h-34.39v14.47q0,18.1-14.47,18.1h-12.67v-9.05q9,0,9-9.05V494.87H1562v-9.05h39.82l8.44-12.67h-35.59v-3.62Zm5.43-25.33-5.43-14.48h16.29l5.43,14.48Zm32.58,0-5.43-14.48h16.29l5.42,14.48Zm45.24,0h-16.29l5.43-14.48h16.29l-5.43,14.48Zm-12.67,10.85h-52.48v9.05h52.48Z" transform="translate(-43.47 -416.06)"/><path class="cls-1" d="M1080.35,656h-29v-9h16.29q10.86,0,10.86-9.05V598.12h-30.77v-9h65.15v9h-16.28v39.81Q1096.64,656,1080.35,656ZM1053.2,571v-9.05h54.29V571Zm61.08,11.31-7.24-7.84,7.24-8,7.24,8Zm14.78,0-7.24-7.84,7.24-8,7.24,8Z" transform="translate(-43.47 -416.06)"/><path class="cls-1" d="M1189.08,656h-41.62v-9h28q11.76,0,11.76-9.05V576.4h18.1v61.53q0,18.09-16.29,18.1ZM1143.84,571v-9.05h30.76V571Zm0,25.34v-9h30.76v9Zm50.82-23.68-7.24-7.84,7.24-8,7.24,8Zm14.78,0-7.24-7.84,7.24-8,7.24,8Z" transform="translate(-43.47 -416.06)"/><path class="cls-1" d="M1238.39,656v-9h9q10.86,0,10.86-10.86V599.93h-19.91q0,16.27-18.09,16.28h-9v-9h1.81q7.23,0,7.24-7.24V558.3h18.09v9.05h38v68.77q0,19.9-14.48,19.91Zm19.91-79.63h-19.91v14.48h19.91Z" transform="translate(-43.47 -416.06)"/><path class="cls-1" d="M1283.64,656l7.23-90.49H1309L1301.73,656Zm28.95,0V558.3h18.1V647h1.81q7.23,0,7.24-9.05V618h18.09v19.91q0,18.09-16.28,18.1Z" transform="translate(-43.47 -416.06)"/><path class="cls-1" d="M1366.58,583.64V569.16l26.24-10.85,26.24,10.85v14.48l-17.19-7.09v7.09h15.38v33.78h-30.91v2.41h30.91V656h-41.62v-7.24h-9.05l3.62-65.15h13.57v-7.09l-17.19,7.09Zm54.29,48.86V567.35h16.29V632.5ZM1431.73,656v-9h1.81q7.23,0,7.24-7.24V560.12h18.09v79.62q0,16.29-16.28,16.29Zm-47.66-79.63h17.5l-8.75-3.62-8.75,3.62Zm3.77,16.29-.3,3.62h11.61v-3.62Zm-.75,12.06-.15,3.62h12.21v-3.62Zm6.64,42.23h5.42v-18.1h-5.42Z" transform="translate(-43.47 -416.06)"/><path class="cls-1" d="M1496.27,656h-18.09V606.71l-9,18.55V601.74L1489,558.3h12.67l-5.43,11.16Zm32.58,0h-18.1V598.12l-12.67,25.33V589.07l14.48-30.77h18.1l-5.43,10.86h36.19v9.05h-32.57v14.48h30.76v9h-30.76v14.47h30.76v9h-30.76V656Z" transform="translate(-43.47 -416.06)"/><path class="cls-1" d="M1571.68,656V560.11H1664V656h-18.1V569.16h-56.1V656Zm21.71-72.39v-9h48.87v9Zm1.81,54.29V589.07h45.25v48.86Zm16.29-9h12.67V598.12h-12.67Z" transform="translate(-43.47 -416.06)"/><path class="cls-1" d="M1715.85,569.16v-9h47.05L1752,594.5h16.29v9h-18.1v34.38q0,18.11-14.47,18.1H1724.9v-9q7.23,0,7.24-9.05V603.55H1714v-9H1734l8-25.34Zm-38,86.87v-9h7.23q10.86,0,10.86-10.86V632.5l-21.71-5.43,1.35-48.86h-3.16v-9.05h3.31l.31-10.85h16.28l-.3,10.85h20.21v58.37l5.43,1.35v9l-5.43-1.36q-.15,19.45-14.48,19.46Zm18.09-77.82h-4.07l-1.21,43.89,5.28,1.35Z" transform="translate(-43.47 -416.06)"/><path class="cls-1" d="M1778.58,616.22v-9.05h88.68v9.05H1818.4l-14,30.76h38.31l-8-25.33h19.91L1865.45,656h-85.06l18.1-39.81Zm9.05-16.29v-9h70.58v9Zm-10.86-7.24V578.21l46.15-19.9,46.15,19.9v14.48l-46.15-19.91Z" transform="translate(-43.47 -416.06)"/></g></svg>
