<svg id="レイヤー_1" data-name="レイヤー 1" xmlns="http://www.w3.org/2000/svg" viewBox="0 0 985.34 951.36"><defs><style>.cls-1{fill:#ffffff;}</style></defs><title>logo_icon_official</title><g id="logo"><path class="cls-1" d="M1317,708.5,1215.49,734c-59.39,83.41-156.87,137.8-267.06,137.8a326.76,326.76,0,0,1-118.07-21.94L885,793.47a256.91,256.91,0,0,0,63.41,8c117.55,0,216.61-78.87,247.35-186.55L1335,660.3A402.13,402.13,0,0,1,1317,708.5m106-132.81c.68-10.43,1.06-20.93,1.06-31.53a477.65,477.65,0,0,0-9.24-93.65L1348,487.72a407.23,407.23,0,0,1,4,56.44c0,8.52-.3,17-.82,25.35L1205.38,557c.21-4.24.33-8.51.33-12.82a256.13,256.13,0,0,0-52-155l-6.62,5.05a248,248,0,0,1,37.29,70.89L1177,469a240.27,240.27,0,0,1,12,75.14c0,3.83-.11,7.62-.29,11.4l-120-10.32a120.31,120.31,0,0,1-3.32,27.1l114.54,37.38c-28.55,101-121.34,175.06-231.5,175.06a239.84,239.84,0,0,1-49.89-5.25l72.1-74.34L800.36,684.83l-13-161L644.84,667.46a326.71,326.71,0,0,1-24-123.3c0-106.81,51.14-201.68,130.25-261.48l9.38-36.84a350.9,350.9,0,0,1,188-54.27c8.25,0,16.43.31,24.54.86h.15v0h0l25,42a311.38,311.38,0,0,1,106.68,37.84l14-13.26a330.11,330.11,0,0,0-111.69-41.87l-25.36-42.54c-11-1-22.12-1.51-33.38-1.51A369.29,369.29,0,0,0,766.9,220.5l10.68-41.93a401.71,401.71,0,0,1,170.85-37.9c12.4,0,24.66.59,36.77,1.68l37.2-68.13a478.52,478.52,0,0,0-74-5.74c-262.71,0-475.68,213-475.68,475.68a473.49,473.49,0,0,0,68.51,246.07l-49.38,214.19L710.44,956.1a473.46,473.46,0,0,0,238,63.75c214.52,0,395.85-142,455.16-337.15l33.46,10.92a509.41,509.41,0,0,0,21-114.92l-35-3Z" transform="translate(-472.75 -68.48)"/></g></svg>
